<?xml version="1.0" standalone="no"?>
<!DOCTYPE svg PUBLIC "-//W3C//DTD SVG 20010904//EN"
 "http://www.w3.org/TR/2001/REC-SVG-20010904/DTD/svg10.dtd">
<svg version="1.0" xmlns="http://www.w3.org/2000/svg"
 width="55.000000pt" height="55.000000pt" viewBox="0 0 55.000000 55.000000"
 preserveAspectRatio="xMidYMid meet">

<g transform="translate(0.000000,55.000000) scale(0.100000,-0.100000)"
fill="#000000" stroke="none">
<path d="M165 474 c-27 -19 -55 -38 -61 -42 -7 -4 -15 -56 -19 -127 l-7 -120
74 -24 c40 -13 118 -47 172 -76 l99 -53 39 25 c21 14 38 28 38 32 0 3 -45 22
-101 41 l-101 35 28 21 c27 22 27 23 28 150 l1 128 -45 17 c-84 30 -91 30
-145 -7z m60 -38 l40 -14 3 -112 3 -112 -25 6 c-79 20 -76 14 -76 136 0 60 3
110 8 110 4 0 25 -7 47 -14z"/>
</g>
</svg>
